<?xml version="1.0" encoding="utf-8"?>
<!-- Generator: Adobe Illustrator 19.2.1, SVG Export Plug-In . SVG Version: 6.00 Build 0)  -->
<svg version="1.0" id="Layer_1" xmlns="http://www.w3.org/2000/svg" xmlns:xlink="http://www.w3.org/1999/xlink" x="0px" y="0px"
	 viewBox="0 0 33.6 33.6" style="enable-background:new 0 0 33.6 33.6;" xml:space="preserve">
<style type="text/css">
	.st0{fill:#439F9E;}
	.st1{fill:#FFFFFF;}
</style>
<circle class="st0" cx="16.8" cy="16.8" r="16.4"/>
<g>
	<polygon class="st1" points="13.9,24 7,24 7,21.2 8.8,21.2 8.8,22.2 12.2,22.2 12.2,17.7 6.9,17.7 6.9,9.6 13.8,9.6 13.8,12.4 
		12,12.4 12,11.4 8.6,11.4 8.6,15.9 13.9,15.9 	"/>
	<polygon class="st1" points="25.5,9.6 21.4,13.8 17.3,9.6 16,9.6 16,24 17.8,24 17.8,12.6 21.4,16.2 25,12.6 25,24 26.8,24 
		26.8,9.6 	"/>
</g>
</svg>
