<?xml version="1.0" encoding="utf-8"?>
<!-- Generator: Adobe Illustrator 18.1.1, SVG Export Plug-In . SVG Version: 6.00 Build 0)  -->
<svg version="1.1" id="Layer_1" xmlns="http://www.w3.org/2000/svg" xmlns:xlink="http://www.w3.org/1999/xlink" x="0px" y="0px"
	 viewBox="0 0 566.9 566.9" enable-background="new 0 0 566.9 566.9" xml:space="preserve">
<pattern  y="566.9" width="40.7" height="26.4" patternUnits="userSpaceOnUse" id="SVGID_3_" viewBox="2.9 -32.4 40.7 26.4" overflow="visible">
	<g>
		<polygon fill="none" points="2.9,-6 43.6,-6 43.6,-32.4 2.9,-32.4 		"/>
		<g>
			<polygon fill="none" points="2.9,-6 43.6,-6 43.6,-32.4 2.9,-32.4 			"/>
			<g>
				<line fill="none" stroke="#A08E8B" stroke-miterlimit="10" x1="29.7" y1="-32.4" x2="27.6" y2="-38.2"/>
				<line fill="none" stroke="#A08E8B" stroke-miterlimit="10" x1="37.8" y1="-32.4" x2="35.7" y2="-38.2"/>
				<line fill="none" stroke="#A08E8B" stroke-miterlimit="10" x1="45.9" y1="-32.4" x2="43.8" y2="-38.2"/>
			</g>
			<g>
				<line fill="none" stroke="#A08E8B" stroke-miterlimit="10" x1="5.2" y1="-32.4" x2="3.1" y2="-38.2"/>
				<line fill="none" stroke="#A08E8B" stroke-miterlimit="10" x1="13.5" y1="-32.4" x2="11.2" y2="-38.2"/>
				<line fill="none" stroke="#A08E8B" stroke-miterlimit="10" x1="21.6" y1="-32.4" x2="19.5" y2="-38.2"/>
				<line fill="none" stroke="#A08E8B" stroke-miterlimit="10" x1="29.7" y1="-32.4" x2="27.6" y2="-38.2"/>
			</g>
			<g>
				<line fill="none" stroke="#A08E8B" stroke-miterlimit="10" x1="16.1" y1="-23.5" x2="14" y2="-29.4"/>
				<line fill="none" stroke="#A08E8B" stroke-miterlimit="10" x1="24.2" y1="-23.5" x2="22.1" y2="-29.4"/>
				<line fill="none" stroke="#A08E8B" stroke-miterlimit="10" x1="32.3" y1="-23.5" x2="30.2" y2="-29.4"/>
				<line fill="none" stroke="#A08E8B" stroke-miterlimit="10" x1="40.6" y1="-23.5" x2="38.3" y2="-29.4"/>
				<line fill="none" stroke="#A08E8B" stroke-miterlimit="10" x1="19.1" y1="-26.5" x2="17" y2="-32.4"/>
				<line fill="none" stroke="#A08E8B" stroke-miterlimit="10" x1="27.2" y1="-26.5" x2="25.1" y2="-32.4"/>
				<line fill="none" stroke="#A08E8B" stroke-miterlimit="10" x1="35.3" y1="-26.5" x2="33.2" y2="-32.4"/>
				<line fill="none" stroke="#A08E8B" stroke-miterlimit="10" x1="43.6" y1="-26.5" x2="41.3" y2="-32.4"/>
			</g>
			<g>
				<line fill="none" stroke="#A08E8B" stroke-miterlimit="10" x1="8" y1="-23.5" x2="5.9" y2="-29.4"/>
				<line fill="none" stroke="#A08E8B" stroke-miterlimit="10" x1="16.1" y1="-23.5" x2="14" y2="-29.4"/>
				<line fill="none" stroke="#A08E8B" stroke-miterlimit="10" x1="2.9" y1="-26.5" x2="0.7" y2="-32.4"/>
				<line fill="none" stroke="#A08E8B" stroke-miterlimit="10" x1="11" y1="-26.5" x2="8.8" y2="-32.4"/>
				<line fill="none" stroke="#A08E8B" stroke-miterlimit="10" x1="19.1" y1="-26.5" x2="17" y2="-32.4"/>
			</g>
			<g>
				<line fill="none" stroke="#A08E8B" stroke-miterlimit="10" x1="43.2" y1="-14.9" x2="41.2" y2="-20.7"/>
				<line fill="none" stroke="#A08E8B" stroke-miterlimit="10" x1="46.2" y1="-17.7" x2="44.2" y2="-23.5"/>
			</g>
			<g>
				<line fill="none" stroke="#A08E8B" stroke-miterlimit="10" x1="2.5" y1="-14.9" x2="0.5" y2="-20.7"/>
				<line fill="none" stroke="#A08E8B" stroke-miterlimit="10" x1="10.6" y1="-14.9" x2="8.6" y2="-20.7"/>
				<line fill="none" stroke="#A08E8B" stroke-miterlimit="10" x1="18.7" y1="-14.9" x2="16.7" y2="-20.7"/>
				<line fill="none" stroke="#A08E8B" stroke-miterlimit="10" x1="27" y1="-14.9" x2="24.8" y2="-20.7"/>
				<line fill="none" stroke="#A08E8B" stroke-miterlimit="10" x1="35.1" y1="-14.9" x2="33.1" y2="-20.7"/>
				<line fill="none" stroke="#A08E8B" stroke-miterlimit="10" x1="43.2" y1="-14.9" x2="41.2" y2="-20.7"/>
				<line fill="none" stroke="#A08E8B" stroke-miterlimit="10" x1="5.6" y1="-17.7" x2="3.5" y2="-23.5"/>
				<line fill="none" stroke="#A08E8B" stroke-miterlimit="10" x1="13.7" y1="-17.7" x2="11.6" y2="-23.5"/>
				<line fill="none" stroke="#A08E8B" stroke-miterlimit="10" x1="21.8" y1="-17.7" x2="19.7" y2="-23.5"/>
				<line fill="none" stroke="#A08E8B" stroke-miterlimit="10" x1="30" y1="-17.7" x2="27.8" y2="-23.5"/>
				<line fill="none" stroke="#A08E8B" stroke-miterlimit="10" x1="38.1" y1="-17.7" x2="35.9" y2="-23.5"/>
				<line fill="none" stroke="#A08E8B" stroke-miterlimit="10" x1="46.2" y1="-17.7" x2="44.2" y2="-23.5"/>
			</g>
			<g>
				<line fill="none" stroke="#A08E8B" stroke-miterlimit="10" x1="2.5" y1="-14.9" x2="0.5" y2="-20.7"/>
				<line fill="none" stroke="#A08E8B" stroke-miterlimit="10" x1="5.6" y1="-17.7" x2="3.5" y2="-23.5"/>
			</g>
			<g>
				<line fill="none" stroke="#A08E8B" stroke-miterlimit="10" x1="29.7" y1="-6" x2="27.6" y2="-11.9"/>
				<line fill="none" stroke="#A08E8B" stroke-miterlimit="10" x1="37.8" y1="-6" x2="35.7" y2="-11.9"/>
				<line fill="none" stroke="#A08E8B" stroke-miterlimit="10" x1="45.9" y1="-6" x2="43.8" y2="-11.9"/>
				<line fill="none" stroke="#A08E8B" stroke-miterlimit="10" x1="32.7" y1="-8.8" x2="30.6" y2="-14.7"/>
				<line fill="none" stroke="#A08E8B" stroke-miterlimit="10" x1="40.8" y1="-8.8" x2="38.7" y2="-14.7"/>
			</g>
			<g>
				<line fill="none" stroke="#A08E8B" stroke-miterlimit="10" x1="5.2" y1="-6" x2="3.1" y2="-11.9"/>
				<line fill="none" stroke="#A08E8B" stroke-miterlimit="10" x1="13.5" y1="-6" x2="11.2" y2="-11.9"/>
				<line fill="none" stroke="#A08E8B" stroke-miterlimit="10" x1="21.6" y1="-6" x2="19.5" y2="-11.9"/>
				<line fill="none" stroke="#A08E8B" stroke-miterlimit="10" x1="29.7" y1="-6" x2="27.6" y2="-11.9"/>
				<line fill="none" stroke="#A08E8B" stroke-miterlimit="10" x1="8.2" y1="-8.8" x2="6.1" y2="-14.7"/>
				<line fill="none" stroke="#A08E8B" stroke-miterlimit="10" x1="16.5" y1="-8.8" x2="14.2" y2="-14.7"/>
				<line fill="none" stroke="#A08E8B" stroke-miterlimit="10" x1="24.6" y1="-8.8" x2="22.3" y2="-14.7"/>
				<line fill="none" stroke="#A08E8B" stroke-miterlimit="10" x1="32.7" y1="-8.8" x2="30.6" y2="-14.7"/>
			</g>
			<g>
				<line fill="none" stroke="#A08E8B" stroke-miterlimit="10" x1="19.1" y1="-0.2" x2="17" y2="-6"/>
				<line fill="none" stroke="#A08E8B" stroke-miterlimit="10" x1="27.2" y1="-0.2" x2="25.1" y2="-6"/>
				<line fill="none" stroke="#A08E8B" stroke-miterlimit="10" x1="35.3" y1="-0.2" x2="33.2" y2="-6"/>
				<line fill="none" stroke="#A08E8B" stroke-miterlimit="10" x1="43.6" y1="-0.2" x2="41.3" y2="-6"/>
			</g>
			<g>
				<line fill="none" stroke="#A08E8B" stroke-miterlimit="10" x1="2.9" y1="-0.2" x2="0.7" y2="-6"/>
				<line fill="none" stroke="#A08E8B" stroke-miterlimit="10" x1="11" y1="-0.2" x2="8.8" y2="-6"/>
				<line fill="none" stroke="#A08E8B" stroke-miterlimit="10" x1="19.1" y1="-0.2" x2="17" y2="-6"/>
			</g>
		</g>
	</g>
</pattern>
<pattern  y="566.9" width="40.7" height="26.4" patternUnits="userSpaceOnUse" id="SVGID_6_" viewBox="2.9 -32.4 40.7 26.4" overflow="visible">
	<g>
		<polygon fill="none" points="2.9,-6 43.6,-6 43.6,-32.4 2.9,-32.4 		"/>
		<g>
			<polygon fill="none" points="2.9,-6 43.6,-6 43.6,-32.4 2.9,-32.4 			"/>
			<g>
				<line fill="none" stroke="#A08E8B" stroke-miterlimit="10" x1="29.7" y1="-32.4" x2="27.6" y2="-38.2"/>
				<line fill="none" stroke="#A08E8B" stroke-miterlimit="10" x1="37.8" y1="-32.4" x2="35.7" y2="-38.2"/>
				<line fill="none" stroke="#A08E8B" stroke-miterlimit="10" x1="45.9" y1="-32.4" x2="43.8" y2="-38.2"/>
			</g>
			<g>
				<line fill="none" stroke="#A08E8B" stroke-miterlimit="10" x1="5.2" y1="-32.4" x2="3.1" y2="-38.2"/>
				<line fill="none" stroke="#A08E8B" stroke-miterlimit="10" x1="13.5" y1="-32.4" x2="11.2" y2="-38.2"/>
				<line fill="none" stroke="#A08E8B" stroke-miterlimit="10" x1="21.6" y1="-32.4" x2="19.5" y2="-38.2"/>
				<line fill="none" stroke="#A08E8B" stroke-miterlimit="10" x1="29.7" y1="-32.4" x2="27.6" y2="-38.2"/>
			</g>
			<g>
				<line fill="none" stroke="#A08E8B" stroke-miterlimit="10" x1="16.1" y1="-23.5" x2="14" y2="-29.4"/>
				<line fill="none" stroke="#A08E8B" stroke-miterlimit="10" x1="24.2" y1="-23.5" x2="22.1" y2="-29.4"/>
				<line fill="none" stroke="#A08E8B" stroke-miterlimit="10" x1="32.3" y1="-23.5" x2="30.2" y2="-29.4"/>
				<line fill="none" stroke="#A08E8B" stroke-miterlimit="10" x1="40.6" y1="-23.5" x2="38.3" y2="-29.4"/>
				<line fill="none" stroke="#A08E8B" stroke-miterlimit="10" x1="19.1" y1="-26.5" x2="17" y2="-32.4"/>
				<line fill="none" stroke="#A08E8B" stroke-miterlimit="10" x1="27.2" y1="-26.5" x2="25.1" y2="-32.4"/>
				<line fill="none" stroke="#A08E8B" stroke-miterlimit="10" x1="35.3" y1="-26.5" x2="33.2" y2="-32.4"/>
				<line fill="none" stroke="#A08E8B" stroke-miterlimit="10" x1="43.6" y1="-26.5" x2="41.3" y2="-32.4"/>
			</g>
			<g>
				<line fill="none" stroke="#A08E8B" stroke-miterlimit="10" x1="8" y1="-23.5" x2="5.9" y2="-29.4"/>
				<line fill="none" stroke="#A08E8B" stroke-miterlimit="10" x1="16.1" y1="-23.5" x2="14" y2="-29.4"/>
				<line fill="none" stroke="#A08E8B" stroke-miterlimit="10" x1="2.9" y1="-26.5" x2="0.7" y2="-32.4"/>
				<line fill="none" stroke="#A08E8B" stroke-miterlimit="10" x1="11" y1="-26.5" x2="8.8" y2="-32.4"/>
				<line fill="none" stroke="#A08E8B" stroke-miterlimit="10" x1="19.1" y1="-26.5" x2="17" y2="-32.4"/>
			</g>
			<g>
				<line fill="none" stroke="#A08E8B" stroke-miterlimit="10" x1="43.2" y1="-14.9" x2="41.2" y2="-20.7"/>
				<line fill="none" stroke="#A08E8B" stroke-miterlimit="10" x1="46.2" y1="-17.7" x2="44.2" y2="-23.5"/>
			</g>
			<g>
				<line fill="none" stroke="#A08E8B" stroke-miterlimit="10" x1="2.5" y1="-14.9" x2="0.5" y2="-20.7"/>
				<line fill="none" stroke="#A08E8B" stroke-miterlimit="10" x1="10.6" y1="-14.9" x2="8.6" y2="-20.7"/>
				<line fill="none" stroke="#A08E8B" stroke-miterlimit="10" x1="18.7" y1="-14.9" x2="16.7" y2="-20.7"/>
				<line fill="none" stroke="#A08E8B" stroke-miterlimit="10" x1="27" y1="-14.9" x2="24.8" y2="-20.7"/>
				<line fill="none" stroke="#A08E8B" stroke-miterlimit="10" x1="35.1" y1="-14.9" x2="33.1" y2="-20.7"/>
				<line fill="none" stroke="#A08E8B" stroke-miterlimit="10" x1="43.2" y1="-14.9" x2="41.2" y2="-20.7"/>
				<line fill="none" stroke="#A08E8B" stroke-miterlimit="10" x1="5.6" y1="-17.7" x2="3.5" y2="-23.5"/>
				<line fill="none" stroke="#A08E8B" stroke-miterlimit="10" x1="13.7" y1="-17.7" x2="11.6" y2="-23.5"/>
				<line fill="none" stroke="#A08E8B" stroke-miterlimit="10" x1="21.8" y1="-17.7" x2="19.7" y2="-23.5"/>
				<line fill="none" stroke="#A08E8B" stroke-miterlimit="10" x1="30" y1="-17.7" x2="27.8" y2="-23.5"/>
				<line fill="none" stroke="#A08E8B" stroke-miterlimit="10" x1="38.1" y1="-17.7" x2="35.9" y2="-23.5"/>
				<line fill="none" stroke="#A08E8B" stroke-miterlimit="10" x1="46.2" y1="-17.7" x2="44.2" y2="-23.5"/>
			</g>
			<g>
				<line fill="none" stroke="#A08E8B" stroke-miterlimit="10" x1="2.5" y1="-14.9" x2="0.5" y2="-20.7"/>
				<line fill="none" stroke="#A08E8B" stroke-miterlimit="10" x1="5.6" y1="-17.7" x2="3.5" y2="-23.5"/>
			</g>
			<g>
				<line fill="none" stroke="#A08E8B" stroke-miterlimit="10" x1="29.7" y1="-6" x2="27.6" y2="-11.9"/>
				<line fill="none" stroke="#A08E8B" stroke-miterlimit="10" x1="37.8" y1="-6" x2="35.7" y2="-11.9"/>
				<line fill="none" stroke="#A08E8B" stroke-miterlimit="10" x1="45.9" y1="-6" x2="43.8" y2="-11.9"/>
				<line fill="none" stroke="#A08E8B" stroke-miterlimit="10" x1="32.7" y1="-8.8" x2="30.6" y2="-14.7"/>
				<line fill="none" stroke="#A08E8B" stroke-miterlimit="10" x1="40.8" y1="-8.8" x2="38.7" y2="-14.7"/>
			</g>
			<g>
				<line fill="none" stroke="#A08E8B" stroke-miterlimit="10" x1="5.2" y1="-6" x2="3.1" y2="-11.9"/>
				<line fill="none" stroke="#A08E8B" stroke-miterlimit="10" x1="13.5" y1="-6" x2="11.2" y2="-11.9"/>
				<line fill="none" stroke="#A08E8B" stroke-miterlimit="10" x1="21.6" y1="-6" x2="19.5" y2="-11.9"/>
				<line fill="none" stroke="#A08E8B" stroke-miterlimit="10" x1="29.7" y1="-6" x2="27.6" y2="-11.9"/>
				<line fill="none" stroke="#A08E8B" stroke-miterlimit="10" x1="8.2" y1="-8.8" x2="6.1" y2="-14.7"/>
				<line fill="none" stroke="#A08E8B" stroke-miterlimit="10" x1="16.5" y1="-8.8" x2="14.2" y2="-14.7"/>
				<line fill="none" stroke="#A08E8B" stroke-miterlimit="10" x1="24.6" y1="-8.8" x2="22.3" y2="-14.7"/>
				<line fill="none" stroke="#A08E8B" stroke-miterlimit="10" x1="32.7" y1="-8.8" x2="30.6" y2="-14.7"/>
			</g>
			<g>
				<line fill="none" stroke="#A08E8B" stroke-miterlimit="10" x1="19.1" y1="-0.2" x2="17" y2="-6"/>
				<line fill="none" stroke="#A08E8B" stroke-miterlimit="10" x1="27.2" y1="-0.2" x2="25.1" y2="-6"/>
				<line fill="none" stroke="#A08E8B" stroke-miterlimit="10" x1="35.3" y1="-0.2" x2="33.2" y2="-6"/>
				<line fill="none" stroke="#A08E8B" stroke-miterlimit="10" x1="43.6" y1="-0.2" x2="41.3" y2="-6"/>
			</g>
			<g>
				<line fill="none" stroke="#A08E8B" stroke-miterlimit="10" x1="2.9" y1="-0.2" x2="0.7" y2="-6"/>
				<line fill="none" stroke="#A08E8B" stroke-miterlimit="10" x1="11" y1="-0.2" x2="8.8" y2="-6"/>
				<line fill="none" stroke="#A08E8B" stroke-miterlimit="10" x1="19.1" y1="-0.2" x2="17" y2="-6"/>
			</g>
		</g>
	</g>
</pattern>
<pattern  y="566.9" width="40.7" height="26.4" patternUnits="userSpaceOnUse" id="SVGID_7_" viewBox="2.9 -32.4 40.7 26.4" overflow="visible">
	<g>
		<polygon fill="none" points="2.9,-6 43.6,-6 43.6,-32.4 2.9,-32.4 		"/>
		<g>
			<polygon fill="none" points="2.9,-6 43.6,-6 43.6,-32.4 2.9,-32.4 			"/>
			<g>
				<line fill="none" stroke="#A08E8B" stroke-miterlimit="10" x1="29.7" y1="-32.4" x2="27.6" y2="-38.2"/>
				<line fill="none" stroke="#A08E8B" stroke-miterlimit="10" x1="37.8" y1="-32.4" x2="35.7" y2="-38.2"/>
				<line fill="none" stroke="#A08E8B" stroke-miterlimit="10" x1="45.9" y1="-32.4" x2="43.8" y2="-38.2"/>
			</g>
			<g>
				<line fill="none" stroke="#A08E8B" stroke-miterlimit="10" x1="5.2" y1="-32.4" x2="3.1" y2="-38.2"/>
				<line fill="none" stroke="#A08E8B" stroke-miterlimit="10" x1="13.5" y1="-32.4" x2="11.2" y2="-38.2"/>
				<line fill="none" stroke="#A08E8B" stroke-miterlimit="10" x1="21.6" y1="-32.4" x2="19.5" y2="-38.2"/>
				<line fill="none" stroke="#A08E8B" stroke-miterlimit="10" x1="29.7" y1="-32.4" x2="27.6" y2="-38.2"/>
			</g>
			<g>
				<line fill="none" stroke="#A08E8B" stroke-miterlimit="10" x1="16.1" y1="-23.5" x2="14" y2="-29.4"/>
				<line fill="none" stroke="#A08E8B" stroke-miterlimit="10" x1="24.2" y1="-23.5" x2="22.1" y2="-29.4"/>
				<line fill="none" stroke="#A08E8B" stroke-miterlimit="10" x1="32.3" y1="-23.5" x2="30.2" y2="-29.4"/>
				<line fill="none" stroke="#A08E8B" stroke-miterlimit="10" x1="40.6" y1="-23.5" x2="38.3" y2="-29.4"/>
				<line fill="none" stroke="#A08E8B" stroke-miterlimit="10" x1="19.1" y1="-26.5" x2="17" y2="-32.4"/>
				<line fill="none" stroke="#A08E8B" stroke-miterlimit="10" x1="27.2" y1="-26.5" x2="25.1" y2="-32.4"/>
				<line fill="none" stroke="#A08E8B" stroke-miterlimit="10" x1="35.3" y1="-26.5" x2="33.2" y2="-32.4"/>
				<line fill="none" stroke="#A08E8B" stroke-miterlimit="10" x1="43.6" y1="-26.5" x2="41.3" y2="-32.4"/>
			</g>
			<g>
				<line fill="none" stroke="#A08E8B" stroke-miterlimit="10" x1="8" y1="-23.5" x2="5.9" y2="-29.4"/>
				<line fill="none" stroke="#A08E8B" stroke-miterlimit="10" x1="16.1" y1="-23.5" x2="14" y2="-29.4"/>
				<line fill="none" stroke="#A08E8B" stroke-miterlimit="10" x1="2.9" y1="-26.5" x2="0.7" y2="-32.4"/>
				<line fill="none" stroke="#A08E8B" stroke-miterlimit="10" x1="11" y1="-26.5" x2="8.8" y2="-32.4"/>
				<line fill="none" stroke="#A08E8B" stroke-miterlimit="10" x1="19.1" y1="-26.5" x2="17" y2="-32.4"/>
			</g>
			<g>
				<line fill="none" stroke="#A08E8B" stroke-miterlimit="10" x1="43.2" y1="-14.9" x2="41.2" y2="-20.7"/>
				<line fill="none" stroke="#A08E8B" stroke-miterlimit="10" x1="46.2" y1="-17.7" x2="44.2" y2="-23.5"/>
			</g>
			<g>
				<line fill="none" stroke="#A08E8B" stroke-miterlimit="10" x1="2.5" y1="-14.9" x2="0.5" y2="-20.7"/>
				<line fill="none" stroke="#A08E8B" stroke-miterlimit="10" x1="10.6" y1="-14.9" x2="8.6" y2="-20.7"/>
				<line fill="none" stroke="#A08E8B" stroke-miterlimit="10" x1="18.7" y1="-14.9" x2="16.7" y2="-20.7"/>
				<line fill="none" stroke="#A08E8B" stroke-miterlimit="10" x1="27" y1="-14.9" x2="24.8" y2="-20.7"/>
				<line fill="none" stroke="#A08E8B" stroke-miterlimit="10" x1="35.1" y1="-14.9" x2="33.1" y2="-20.7"/>
				<line fill="none" stroke="#A08E8B" stroke-miterlimit="10" x1="43.2" y1="-14.9" x2="41.2" y2="-20.7"/>
				<line fill="none" stroke="#A08E8B" stroke-miterlimit="10" x1="5.6" y1="-17.7" x2="3.5" y2="-23.5"/>
				<line fill="none" stroke="#A08E8B" stroke-miterlimit="10" x1="13.7" y1="-17.7" x2="11.6" y2="-23.5"/>
				<line fill="none" stroke="#A08E8B" stroke-miterlimit="10" x1="21.8" y1="-17.7" x2="19.7" y2="-23.5"/>
				<line fill="none" stroke="#A08E8B" stroke-miterlimit="10" x1="30" y1="-17.7" x2="27.8" y2="-23.5"/>
				<line fill="none" stroke="#A08E8B" stroke-miterlimit="10" x1="38.1" y1="-17.7" x2="35.9" y2="-23.5"/>
				<line fill="none" stroke="#A08E8B" stroke-miterlimit="10" x1="46.2" y1="-17.7" x2="44.2" y2="-23.5"/>
			</g>
			<g>
				<line fill="none" stroke="#A08E8B" stroke-miterlimit="10" x1="2.5" y1="-14.9" x2="0.5" y2="-20.7"/>
				<line fill="none" stroke="#A08E8B" stroke-miterlimit="10" x1="5.6" y1="-17.7" x2="3.5" y2="-23.5"/>
			</g>
			<g>
				<line fill="none" stroke="#A08E8B" stroke-miterlimit="10" x1="29.7" y1="-6" x2="27.6" y2="-11.9"/>
				<line fill="none" stroke="#A08E8B" stroke-miterlimit="10" x1="37.8" y1="-6" x2="35.7" y2="-11.9"/>
				<line fill="none" stroke="#A08E8B" stroke-miterlimit="10" x1="45.9" y1="-6" x2="43.8" y2="-11.9"/>
				<line fill="none" stroke="#A08E8B" stroke-miterlimit="10" x1="32.7" y1="-8.8" x2="30.6" y2="-14.7"/>
				<line fill="none" stroke="#A08E8B" stroke-miterlimit="10" x1="40.8" y1="-8.8" x2="38.7" y2="-14.7"/>
			</g>
			<g>
				<line fill="none" stroke="#A08E8B" stroke-miterlimit="10" x1="5.2" y1="-6" x2="3.1" y2="-11.9"/>
				<line fill="none" stroke="#A08E8B" stroke-miterlimit="10" x1="13.5" y1="-6" x2="11.2" y2="-11.9"/>
				<line fill="none" stroke="#A08E8B" stroke-miterlimit="10" x1="21.6" y1="-6" x2="19.5" y2="-11.9"/>
				<line fill="none" stroke="#A08E8B" stroke-miterlimit="10" x1="29.7" y1="-6" x2="27.6" y2="-11.9"/>
				<line fill="none" stroke="#A08E8B" stroke-miterlimit="10" x1="8.2" y1="-8.8" x2="6.1" y2="-14.7"/>
				<line fill="none" stroke="#A08E8B" stroke-miterlimit="10" x1="16.5" y1="-8.8" x2="14.2" y2="-14.7"/>
				<line fill="none" stroke="#A08E8B" stroke-miterlimit="10" x1="24.6" y1="-8.8" x2="22.3" y2="-14.7"/>
				<line fill="none" stroke="#A08E8B" stroke-miterlimit="10" x1="32.7" y1="-8.8" x2="30.6" y2="-14.7"/>
			</g>
			<g>
				<line fill="none" stroke="#A08E8B" stroke-miterlimit="10" x1="19.1" y1="-0.2" x2="17" y2="-6"/>
				<line fill="none" stroke="#A08E8B" stroke-miterlimit="10" x1="27.2" y1="-0.2" x2="25.1" y2="-6"/>
				<line fill="none" stroke="#A08E8B" stroke-miterlimit="10" x1="35.3" y1="-0.2" x2="33.2" y2="-6"/>
				<line fill="none" stroke="#A08E8B" stroke-miterlimit="10" x1="43.6" y1="-0.2" x2="41.3" y2="-6"/>
			</g>
			<g>
				<line fill="none" stroke="#A08E8B" stroke-miterlimit="10" x1="2.9" y1="-0.2" x2="0.7" y2="-6"/>
				<line fill="none" stroke="#A08E8B" stroke-miterlimit="10" x1="11" y1="-0.2" x2="8.8" y2="-6"/>
				<line fill="none" stroke="#A08E8B" stroke-miterlimit="10" x1="19.1" y1="-0.2" x2="17" y2="-6"/>
			</g>
		</g>
	</g>
</pattern>
<g>
	<g>
		<g>
			<g>
				<path fill="#69BBB4" d="M566.9,283.5c0,156.5-127,283.5-283.5,283.5S0,439.9,0,283.5S127,0,283.5,0S566.9,127,566.9,283.5z"/>
			</g>
		</g>
		<g>
			<path fill="#FFFFFF" d="M163.1,188.6c0,19.8-15.9,29.3-40.8,29.3c-14,0-27.2-3.8-38.2-9.6l3.6-24.2c7.2,4.7,17.8,8.5,28.5,8.5
				c4.3,0,6.6-1.1,6.6-3.2c0-5.3-36.1,0-36.1-30.2c0-20,16.4-29.5,41.4-29.5c11.7,0,22.7,2.6,32.3,6.8l-3.4,23.1
				c-5.7-2.5-16.1-5.1-22.7-5.1c-4,0-8.3,0.2-8.3,2.8C125.9,163.3,163.1,157.6,163.1,188.6z"/>
			<path fill="#FFFFFF" d="M207.5,183.3c3.4,7.2,12.3,9.1,23.1,9.1c8.1,0,15.3-1.7,22.1-4l4.2,23.8c-9.6,3.8-23.1,5.9-35.9,5.9
				c-27.2,0-50.1-14.4-50.1-45.2c0-26.3,21-43.3,45.5-43.3c35.1,0,48.2,23.2,44,53.5h-52.9V183.3z M227.3,164.4
				c-0.8-6-3.6-11.1-10-11.1c-6.6,0-9.6,5.1-11,11.1H227.3z M227.3,164.4h-21H227.3z"/>
			<rect x="271.9" y="98.6" fill="#FFFFFF" width="41.4" height="25.1"/>
			<path fill="#FFFFFF" d="M417.1,166.3V216H377v-7.7c-6.2,5.7-14,9.8-24.6,9.8c-16.8,0-28.5-12.3-28.5-27c0-18,13.2-27.2,36.3-27.2
				c4.2,0,12.9,0.8,16.4,1.5v-0.8c0-5.1-4.5-7.7-14.7-7.7c-9.1,0-18.9,1.7-26.3,4.5l-5.5-25.1c10.6-4.2,25.1-6.6,40.4-6.6
				C401.8,129.8,417.1,142.3,417.1,166.3z"/>
			<path fill="#FFFFFF" d="M377.6,181.8c-1.5-0.4-3.6-0.6-5.9-0.6c-6.2,0-9.8,3-9.8,7.7c0,3.8,2.5,6.4,7,6.4c6.4,0,8.7-5.1,8.7-11
				V181.8z"/>
			<path fill="#FFFFFF" d="M431.8,98.6h40.4V216h-40.4V98.6z"/>
			<g>
				<path fill="#FFFFFF" d="M126,371.2L95.4,264.6V371h-6V239.6h5.3l33.6,117.2l33.4-117.2h5.5V371H161V264.6L130.6,371H126V371.2z"
					/>
				<path fill="#FFFFFF" d="M232.3,330.9h-34.8l-8.9,40.3h-6.2l10.4-45.5V325l19.8-85.2h4.9l30,131.3h-6.2L232.3,330.9z M199,324.9
					h31.7l-16.1-68.6L199,324.9z"/>
				<path fill="#FFFFFF" d="M310.1,371.2l-45.4-112.4v112.4h-6.2V239.8h5.3L309,352.3V239.8h6.2v131.3H310.1z"/>
				<path fill="#FFFFFF" d="M337.5,371.2h-6V239.8h6V371.2z"/>
				<path fill="#FFFFFF" d="M350.2,333.2h6v2.8c0,13,3.4,20,7.6,24c4.3,4,9.8,4.7,14.4,4.7c14,0,22.1-10.4,22.1-27.8
					c0-9.4-3.8-15.7-8.1-19.7c-4.7-4.2-10.2-6.2-13.2-7.6l-3.4-1.3c-4-1.5-10.2-4.3-15.3-9.8c-5.5-5.3-10-12.9-10-24.4
					c0-19.7,10.2-35,28.2-35c18.5,0,28.3,12.3,28.3,35v3.2h-6.4v-3.2c0-19.7-7.2-28.7-22.1-28.7c-14,0-22.1,11.7-22.1,28.7
					c0,9.4,3.6,15.7,8.1,20c4.5,4.5,9.8,6.8,13.6,8.3l3.2,1.3c3.4,1.3,9.8,3.8,15.1,8.7c5.5,5.1,10.2,12.7,10.2,24.2
					c0,19.5-10.2,33.6-28.3,33.6c-18.7,0-28.2-11.5-28.2-34.8v-2.5H350.2z"/>
				<path fill="#FFFFFF" d="M463.9,302.4v-62.7h6.2V371h-6.2v-62.6h-39.7V371H418V239.6h6.2v62.7H463.9z"/>
			</g>
			<path fill="#FFFFFF" d="M272.5,131.9v77.5c0,8.7-8.5,11.7-14,13.6v0.4v7.7v17.8h4l0,0c22.7-1.1,50.3-5.7,50.3-41.2v-75.8H272.5z"
				/>
			<g>
				<g>
					<path fill="#69BBB4" d="M358.3,181.4l4.9-0.2c-0.2,0.6-0.8,1.3-1.1,2.1c-0.6,0.8-1.1,1.7-1.7,2.6c-0.6,0.9-1.3,1.9-1.9,2.8
						c-0.6,0.9-1.1,1.9-1.7,2.8c-0.6,0.9-0.9,1.7-1.3,2.6c-0.4,0.8-0.6,1.5-0.6,2.1c0,0.8,0.4,1.1,1.1,1.1c0.8,0,1.7-0.4,3-1.3
						s2.6-2.1,4-3.4c0.6-0.6,1.1-1.1,1.7-1.9c0.6-0.8,1.1-1.3,1.7-2.1c0.6-0.8,1.1-1.3,1.5-1.9c0.4-0.6,0.8-1.1,1.1-1.3l0.4,0.2
						c-0.8,1.1-1.7,2.3-2.8,3.6c-1.1,1.3-2.3,2.6-3.8,4.2c-1.5,1.5-3,2.6-4.3,3.6c-1.3,0.9-2.8,1.3-4.3,1.3c-0.9,0-1.7-0.2-2.3-0.8
						c-0.6-0.6-0.8-1.1-0.8-1.9c0-0.2,0-0.6,0-0.8c0-0.2,0-0.4,0.2-0.6l0,0c-0.9,1.1-2.1,2.1-3.2,2.6c-1.1,0.8-2.5,1.1-4,1.1
						c-0.8,0-1.3-0.2-1.9-0.4c-0.6-0.2-0.9-0.6-1.3-1.1c-0.4-0.6-0.6-0.9-0.8-1.7s-0.2-1.3-0.2-1.9c0-1.5,0.4-3,1.3-4.5
						c0.8-1.5,1.9-2.8,3.2-4.2c1.3-1.1,2.6-2.3,4.2-3c1.5-0.8,3-1.1,4.5-1.1c1.1,0,1.9,0.2,2.6,0.8c0.6,0.4,1.1,1.1,1.5,2.3
						L358.3,181.4z M344.5,193.3c0,0.9,0.2,1.7,0.4,2.3c0.4,0.8,0.9,0.9,1.9,0.9c0.6,0,1.3-0.4,2.1-0.8s1.3-1.1,2.1-1.9
						c0.8-0.8,1.3-1.7,1.9-2.6c0.6-0.9,1.1-1.9,1.5-2.8c0.4-0.9,0.8-1.9,1.1-2.6c0.2-0.8,0.4-1.5,0.4-2.1c0-0.8-0.2-1.5-0.4-1.9
						c-0.4-0.4-0.9-0.8-1.9-0.8c-0.8,0-1.5,0.2-2.1,0.6c-0.8,0.4-1.5,0.9-2.1,1.7c-0.8,0.8-1.3,1.5-1.9,2.5
						c-0.6,0.9-1.1,1.7-1.5,2.6c-0.4,0.9-0.8,1.9-0.9,2.6C344.5,192,344.5,192.8,344.5,193.3z"/>
					<path fill="#69BBB4" d="M368.3,189.5c0.4-0.6,1.1-1.3,1.9-2.5c0.8-0.9,1.7-2.1,2.8-3c1.1-0.9,2.3-1.9,3.4-2.6
						c1.1-0.8,2.5-1.1,3.6-1.1c0.9,0,1.7,0.4,2.3,0.9c0.6,0.6,0.8,1.3,0.8,2.1c0,1.1-0.4,2.1-0.9,3.2c-0.8,1.1-1.3,2.3-2.3,3.2
						c-0.8,1.1-1.5,2.1-2.3,3.2c-0.8,0.9-0.9,1.9-0.9,2.8c0,0.4,0,0.8,0.2,0.9c0.2,0.2,0.6,0.4,0.9,0.4c0.4,0,1.1-0.4,2.1-0.9
						c0.9-0.8,2.3-1.9,4-3.8c1.3-1.5,2.6-2.8,3.6-4.2c1.1-1.3,1.9-2.3,2.5-3l0.4,0.2c-0.8,0.9-1.7,2.1-3,3.6
						c-1.1,1.5-2.5,2.8-3.8,4.2c-1.7,1.7-3,2.8-4.2,3.6s-2.3,1.1-3.6,1.1c-1.1,0-2.1-0.4-2.6-0.9c-0.6-0.6-0.8-1.3-0.8-2.3
						c0-1.1,0.4-2.1,0.9-3.2c0.8-1.1,1.3-2.3,2.3-3.2c0.8-1.1,1.5-2.1,2.3-3s0.9-1.7,0.9-2.5c0-0.4-0.2-0.6-0.4-0.8
						c-0.2-0.2-0.6-0.4-0.9-0.4c-0.6,0-1.3,0.4-2.3,0.9c-0.8,0.6-1.7,1.3-2.6,2.3s-1.9,1.9-2.8,3c-0.9,1.1-1.9,2.3-2.6,3.4
						c-0.9,1.1-1.7,2.3-2.3,3.4c-0.8,1.1-1.1,2.1-1.7,2.8l-4.7,0.2c1.7-2.6,3.2-5.5,4.9-8.1c1.7-2.6,3.2-5.5,4.9-8.3l5.3-0.2
						L368.3,189.5L368.3,189.5z"/>
					<path fill="#69BBB4" d="M412.3,165.5l5.3-0.2c-0.9,1.7-2.3,3.6-3.6,5.5c-1.3,2.1-2.6,4.2-4,6.2c-1.3,2.1-2.6,4.2-4,6.2
						c-1.3,2.1-2.5,4-3.6,5.7c-0.9,1.7-1.9,3.2-2.5,4.5c-0.6,1.3-0.9,2.3-0.9,2.8c0,0.4,0,0.6,0.2,0.8c0.2,0.2,0.4,0.4,0.8,0.4
						c0.6,0,1.5-0.4,2.6-0.9c1.1-0.6,2.5-1.7,3.8-3.2c1.1-1.1,2.3-2.5,3.2-3.6c1.1-1.3,2.3-2.6,3.4-4.3l0.4,0.2
						c-0.4,0.4-0.8,0.9-1.3,1.7c-0.6,0.6-0.9,1.3-1.5,1.9c-0.6,0.8-1.1,1.3-1.7,2.1c-0.6,0.8-1.1,1.3-1.7,1.9
						c-1.5,1.5-2.8,2.8-4.3,3.8c-1.3,0.9-2.8,1.3-4.3,1.3c-0.8,0-1.3-0.2-1.7-0.4c-0.4-0.2-0.8-0.6-1.1-0.9
						c-0.2-0.4-0.4-0.8-0.6-1.1c0-0.4,0-0.9,0-1.3l0,0c-0.9,0.9-2.1,1.9-3.2,2.5c-1.1,0.8-2.5,0.9-4,0.9c-0.8,0-1.3-0.2-1.9-0.4
						c-0.6-0.2-0.9-0.6-1.3-1.1c-0.4-0.4-0.6-0.9-0.8-1.5c-0.2-0.6-0.2-1.1-0.2-1.7c0-1.5,0.4-3,1.1-4.5c0.8-1.5,1.9-2.8,3-4.2
						c1.3-1.1,2.6-2.3,4.2-2.8c1.5-0.8,3-1.1,4.5-1.1c2.1,0,3.4,0.9,4.2,3L412.3,165.5z M391,196.5c0.9,0,2.1-0.4,3-1.3
						c1.1-0.9,2.1-2.1,2.8-3.4c0.9-1.3,1.5-2.8,2.1-4.2c0.6-1.5,0.8-2.6,0.8-3.8c0-0.9-0.2-1.5-0.8-1.9c-0.4-0.4-1.1-0.6-1.7-0.6
						c-0.9,0-1.9,0.4-3,1.3c-0.9,0.9-2.1,1.9-2.8,3.2c-0.9,1.3-1.5,2.6-2.1,4.2c-0.6,1.5-0.8,2.8-0.8,4c0,0.8,0.2,1.3,0.6,2.1
						C389.5,196.2,390,196.5,391,196.5z"/>
				</g>
			</g>
		</g>
	</g>
	<g>
		<g>
			<defs>
				<path id="SVGID_1_" d="M566.9,283.5c0,156.5-127,283.5-283.5,283.5S0,439.9,0,283.5S127,0,283.5,0S566.9,127,566.9,283.5z"/>
			</defs>
			<clipPath id="SVGID_2_">
				<use xlink:href="#SVGID_1_"  overflow="visible"/>
			</clipPath>
			<g clip-path="url(#SVGID_2_)">
				<g>
					<g>
						<path fill="#7DCCBD" d="M309.5,626.1c0,5.7-4.7,10.4-10.4,10.4H142.9c-5.7,0-10.4-4.7-10.4-10.4V491c0-5.7,4.7-10.4,10.4-10.4
							h156.3c5.7,0,10.4,4.7,10.4,10.4V626.1z"/>
						<path fill="#032828" d="M282.1,384.2c0,6,0.2,11.1-5.9,11.1h-74.8c-6,0-5.9-4.9-5.9-11.1l-2.6-43.3c0-6,2.5-11.1,8.5-11.1
							h74.8c6,0,8.5,4.9,8.5,11.1L282.1,384.2z"/>
						<polygon fill="#032828" points="193.3,336.9 198.6,322.6 207.9,328.8 203,313.7 221.1,326.4 208.3,304.6 233,313.1 
							281.4,331.3 202.2,344.1 194.6,334.7 						"/>
						<path fill="#D5BAB4" d="M275.9,415.4c0,6-3.2,14.6-9.4,14.6h-55.6c-6,0-9.4-8.5-9.4-14.6l-1.1-35.1l0.4-23.4
							c0-6,4.9-11.1,11.1-11.1h53.9c6,0,11.1,4.9,11.1,11.1l0.4,23.4L275.9,415.4z"/>
						<path fill="#D5BAB4" d="M257.4,454.7H220c-5.7,0-16.1-29.3-16.1-29.3c0-5.7,3.4-7.7,9.1-7.7h51.2c5.7,0,9.1,2.1,9.1,7.7
							C273.4,425.4,263.2,454.7,257.4,454.7z"/>
						<path fill="#D5BAB4" d="M282.9,413.9c0,1.9-1.5,3.6-3.6,3.6l0,0c-1.9,0-3.6-1.5-3.6-3.6v-30c0-1.9,1.5-3.6,3.6-3.6l0,0
							c1.9,0,3.6,1.5,3.6,3.6V413.9z"/>
						<path fill="#D5BAB4" d="M201.6,413.9c0,1.9-1.5,3.6-3.6,3.6l0,0c-1.9,0-3.6-1.5-3.6-3.6v-30c0-1.9,1.5-3.6,3.6-3.6l0,0
							c1.9,0,3.6,1.5,3.6,3.6V413.9z"/>
						<pattern  id="SVGID_4_" xlink:href="#SVGID_3_" patternTransform="matrix(1.2734 0 0 -1.2734 -4638.6216 -14093.0088)">
						</pattern>
						<path opacity="0.2" fill="url(#SVGID_4_)" enable-background="new    " d="M257.4,454.7H220c-5.7,0-16.1-29.3-16.1-29.3
							c0-5.7,3.4-7.7,9.1-7.7h51.2c5.7,0,9.1,2.1,9.1,7.7C273.4,425.4,263.2,454.7,257.4,454.7z"/>
						<g>
							<g>
								<defs>
									<path id="SVGID_5_" d="M252.3,421.6h-26.8c-5.7,0-12.7,7.2-12.7,7.2c0-5.7,0-11.3,5.7-11.3h41.8c5.7,0,4.7,5.5,4.7,11.3
										C264.8,428.8,258,421.6,252.3,421.6z"/>
								</defs>
								<clipPath id="SVGID_8_">
									<use xlink:href="#SVGID_5_"  overflow="visible"/>
								</clipPath>
								<pattern  id="SVGID_9_" xlink:href="#SVGID_6_" patternTransform="matrix(1.2734 0 0 -1.2734 -4638.6216 -14093.0088)">
								</pattern>
								<path clip-path="url(#SVGID_8_)" fill="url(#SVGID_9_)" d="M257.4,454.7H220c-5.7,0-16.1-29.3-16.1-29.3
									c0-5.7,3.4-7.7,9.1-7.7h51.2c5.7,0,9.1,2.1,9.1,7.7C273.4,425.4,263.2,454.7,257.4,454.7z"/>
							</g>
							<path fill="#FFFFFF" d="M219,425c0,8.7,8.9,15.9,19.7,15.9c8.3,0,19.7-7,19.7-15.9H219z"/>
							<rect x="223.6" y="454.7" fill="#A79896" width="31.2" height="40.6"/>
							<path fill="#7DCCBD" d="M254.7,480.6c0,0-4,12.3-15.3,12.3c-11.3,0-15.9-12.3-15.9-12.3v17h31.2V480.6z"/>
							<pattern  id="SVGID_10_" xlink:href="#SVGID_7_" patternTransform="matrix(1.2734 0 0 -1.2734 -4638.6216 -14093.0088)">
							</pattern>
							<path fill="url(#SVGID_10_)" d="M211.1,442.6c3,6.4,6.4,12.1,9.1,12.1h37.4c2.5,0,6-5.7,9.1-12.1c0,0-4.2,6-27.8,6
								C215.1,448.6,211.1,442.6,211.1,442.6z"/>
						</g>
						<g>
							<path fill="#7DCCBD" d="M434.5,617.8c0,5.7-4.7,10.4-10.4,10.4H268.3c-5.7,0-10.4-4.7-10.4-10.4v-94.3
								c0-5.7,4.7-10.4,10.4-10.4h155.7c5.7,0,10.4,4.7,10.4,10.4V617.8z"/>
							<rect x="309.7" y="469.2" width="70.3" height="44"/>
							<rect x="330.7" y="491.2" fill="#A79896" width="31.2" height="35.1"/>
							<rect x="325" y="515.3" fill="#7DCCBD" width="57.6" height="22.3"/>
							<g>
								<g opacity="0.6" enable-background="new    ">
									<defs>
										<path id="SVGID_11_" opacity="0.6" enable-background="new    " d="M434.5,572.2c0,5.7-4.7,10.4-10.4,10.4H268.3
											c-5.7,0-10.4-4.7-10.4-10.4v-48.6c0-5.7,4.7-10.4,10.4-10.4h155.7c5.7,0,10.4,4.7,10.4,10.4V572.2z"/>
									</defs>
									<clipPath id="SVGID_12_">
										<use xlink:href="#SVGID_11_"  overflow="visible"/>
									</clipPath>
									<g clip-path="url(#SVGID_12_)">
										<g>
											<circle fill="#FFFFFF" cx="269.5" cy="516.7" r="4.5"/>
											<circle fill="#FFFFFF" cx="269.5" cy="527.8" r="3.8"/>
											<circle fill="#FFFFFF" cx="269.5" cy="538" r="3.2"/>
											<circle fill="#FFFFFF" cx="269.5" cy="547.8" r="2.3"/>
											<circle fill="#FFFFFF" cx="269.5" cy="557.5" r="1.5"/>
											<circle fill="#FFFFFF" cx="269.5" cy="565.4" r="0.9"/>
											<circle fill="#FFFFFF" cx="269.5" cy="572.2" r="0.4"/>
										</g>
										<g>
											<circle fill="#FFFFFF" cx="279.7" cy="516.7" r="4.5"/>
											<circle fill="#FFFFFF" cx="279.7" cy="527.8" r="3.8"/>
											<circle fill="#FFFFFF" cx="279.7" cy="538" r="3.2"/>
											<circle fill="#FFFFFF" cx="279.7" cy="547.8" r="2.3"/>
											<circle fill="#FFFFFF" cx="279.7" cy="557.5" r="1.5"/>
											<circle fill="#FFFFFF" cx="279.7" cy="565.4" r="0.9"/>
											<circle fill="#FFFFFF" cx="279.7" cy="572.2" r="0.4"/>
										</g>
										<g>
											<circle fill="#FFFFFF" cx="290.1" cy="516.7" r="4.5"/>
											<circle fill="#FFFFFF" cx="290.1" cy="527.8" r="3.8"/>
											<circle fill="#FFFFFF" cx="290.1" cy="538" r="3.2"/>
											<circle fill="#FFFFFF" cx="290.1" cy="547.8" r="2.3"/>
											<circle fill="#FFFFFF" cx="290.1" cy="557.5" r="1.5"/>
											<circle fill="#FFFFFF" cx="290.1" cy="565.4" r="0.9"/>
											<circle fill="#FFFFFF" cx="290.1" cy="572.2" r="0.4"/>
										</g>
										<g>
											<circle fill="#FFFFFF" cx="300.3" cy="516.7" r="4.5"/>
											<circle fill="#FFFFFF" cx="300.3" cy="527.8" r="3.8"/>
											<circle fill="#FFFFFF" cx="300.3" cy="538" r="3.2"/>
											<circle fill="#FFFFFF" cx="300.3" cy="547.8" r="2.3"/>
											<circle fill="#FFFFFF" cx="300.3" cy="557.5" r="1.5"/>
											<circle fill="#FFFFFF" cx="300.3" cy="565.4" r="0.9"/>
											<circle fill="#FFFFFF" cx="300.3" cy="572.2" r="0.4"/>
										</g>
										<g>
											<circle fill="#FFFFFF" cx="310.5" cy="516.7" r="4.5"/>
											<circle fill="#FFFFFF" cx="310.5" cy="527.8" r="3.8"/>
											<circle fill="#FFFFFF" cx="310.5" cy="538" r="3.2"/>
											<circle fill="#FFFFFF" cx="310.5" cy="547.8" r="2.3"/>
											<circle fill="#FFFFFF" cx="310.5" cy="557.5" r="1.5"/>
											<circle fill="#FFFFFF" cx="310.5" cy="565.4" r="0.9"/>
											<circle fill="#FFFFFF" cx="310.5" cy="572.2" r="0.4"/>
										</g>
										<g>
											<circle fill="#FFFFFF" cx="320.7" cy="516.7" r="4.5"/>
											<circle fill="#FFFFFF" cx="320.7" cy="527.8" r="3.8"/>
											<circle fill="#FFFFFF" cx="320.7" cy="538" r="3.2"/>
											<circle fill="#FFFFFF" cx="320.7" cy="547.8" r="2.3"/>
											<circle fill="#FFFFFF" cx="320.7" cy="557.5" r="1.5"/>
											<circle fill="#FFFFFF" cx="320.7" cy="565.4" r="0.9"/>
											<circle fill="#FFFFFF" cx="320.7" cy="572.2" r="0.4"/>
										</g>
										<g>
											<circle fill="#FFFFFF" cx="330.9" cy="516.7" r="4.5"/>
											<circle fill="#FFFFFF" cx="330.9" cy="527.8" r="3.8"/>
											<circle fill="#FFFFFF" cx="330.9" cy="538" r="3.2"/>
											<circle fill="#FFFFFF" cx="330.9" cy="547.8" r="2.3"/>
											<circle fill="#FFFFFF" cx="330.9" cy="557.5" r="1.5"/>
											<circle fill="#FFFFFF" cx="330.9" cy="565.4" r="0.9"/>
											<circle fill="#FFFFFF" cx="330.9" cy="572.2" r="0.4"/>
										</g>
										<g>
											<circle fill="#FFFFFF" cx="341.1" cy="516.7" r="4.5"/>
											<circle fill="#FFFFFF" cx="341.1" cy="527.8" r="3.8"/>
											<circle fill="#FFFFFF" cx="341.1" cy="538" r="3.2"/>
											<circle fill="#FFFFFF" cx="341.1" cy="547.8" r="2.3"/>
											<circle fill="#FFFFFF" cx="341.1" cy="557.5" r="1.5"/>
											<circle fill="#FFFFFF" cx="341.1" cy="565.4" r="0.9"/>
											<circle fill="#FFFFFF" cx="341.1" cy="572.2" r="0.4"/>
										</g>
										<g>
											<circle fill="#FFFFFF" cx="351.3" cy="516.7" r="4.5"/>
											<circle fill="#FFFFFF" cx="351.3" cy="527.8" r="3.8"/>
											<circle fill="#FFFFFF" cx="351.3" cy="538" r="3.2"/>
											<circle fill="#FFFFFF" cx="351.3" cy="547.8" r="2.3"/>
											<circle fill="#FFFFFF" cx="351.3" cy="557.5" r="1.5"/>
											<circle fill="#FFFFFF" cx="351.3" cy="565.4" r="0.9"/>
											<circle fill="#FFFFFF" cx="351.3" cy="572.2" r="0.4"/>
										</g>
										<g>
											<circle fill="#FFFFFF" cx="361.5" cy="516.7" r="4.5"/>
											<circle fill="#FFFFFF" cx="361.5" cy="527.8" r="3.8"/>
											<circle fill="#FFFFFF" cx="361.5" cy="538" r="3.2"/>
											<circle fill="#FFFFFF" cx="361.5" cy="547.8" r="2.3"/>
											<circle fill="#FFFFFF" cx="361.5" cy="557.5" r="1.5"/>
											<circle fill="#FFFFFF" cx="361.5" cy="565.4" r="0.9"/>
											<circle fill="#FFFFFF" cx="361.5" cy="572.2" r="0.4"/>
										</g>
										<g>
											<circle fill="#FFFFFF" cx="371.7" cy="516.7" r="4.5"/>
											<circle fill="#FFFFFF" cx="371.7" cy="527.8" r="3.8"/>
											<circle fill="#FFFFFF" cx="371.7" cy="538" r="3.2"/>
											<circle fill="#FFFFFF" cx="371.7" cy="547.8" r="2.3"/>
											<circle fill="#FFFFFF" cx="371.7" cy="557.5" r="1.5"/>
											<circle fill="#FFFFFF" cx="371.7" cy="565.4" r="0.9"/>
											<circle fill="#FFFFFF" cx="371.7" cy="572.2" r="0.4"/>
										</g>
										<g>
											<circle fill="#FFFFFF" cx="381.9" cy="516.7" r="4.5"/>
											<circle fill="#FFFFFF" cx="381.9" cy="527.8" r="3.8"/>
											<circle fill="#FFFFFF" cx="381.9" cy="538" r="3.2"/>
											<circle fill="#FFFFFF" cx="381.9" cy="547.8" r="2.3"/>
											<circle fill="#FFFFFF" cx="381.9" cy="557.5" r="1.5"/>
											<circle fill="#FFFFFF" cx="381.9" cy="565.4" r="0.9"/>
											<circle fill="#FFFFFF" cx="381.9" cy="572.2" r="0.4"/>
										</g>
										<g>
											<circle fill="#FFFFFF" cx="392.1" cy="516.7" r="4.5"/>
											<circle fill="#FFFFFF" cx="392.1" cy="527.8" r="3.8"/>
											<circle fill="#FFFFFF" cx="392.1" cy="538" r="3.2"/>
											<circle fill="#FFFFFF" cx="392.1" cy="547.8" r="2.3"/>
											<circle fill="#FFFFFF" cx="392.1" cy="557.5" r="1.5"/>
											<circle fill="#FFFFFF" cx="392.1" cy="565.4" r="0.9"/>
											<circle fill="#FFFFFF" cx="392.1" cy="572.2" r="0.4"/>
										</g>
										<g>
											<circle fill="#FFFFFF" cx="402.3" cy="516.7" r="4.5"/>
											<circle fill="#FFFFFF" cx="402.3" cy="527.8" r="3.8"/>
											<circle fill="#FFFFFF" cx="402.3" cy="538" r="3.2"/>
											<circle fill="#FFFFFF" cx="402.3" cy="547.8" r="2.3"/>
											<circle fill="#FFFFFF" cx="402.3" cy="557.5" r="1.5"/>
											<circle fill="#FFFFFF" cx="402.3" cy="565.4" r="0.9"/>
											<circle fill="#FFFFFF" cx="402.3" cy="572.2" r="0.4"/>
										</g>
										<g>
											<circle fill="#FFFFFF" cx="412.7" cy="516.7" r="4.5"/>
											<circle fill="#FFFFFF" cx="412.7" cy="527.8" r="3.8"/>
											<circle fill="#FFFFFF" cx="412.7" cy="538" r="3.2"/>
											<circle fill="#FFFFFF" cx="412.7" cy="547.8" r="2.3"/>
											<circle fill="#FFFFFF" cx="412.7" cy="557.5" r="1.5"/>
											<circle fill="#FFFFFF" cx="412.7" cy="565.4" r="0.9"/>
											<circle fill="#FFFFFF" cx="412.7" cy="572.2" r="0.4"/>
										</g>
										<g>
											<circle fill="#FFFFFF" cx="422.9" cy="516.7" r="4.5"/>
											<circle fill="#FFFFFF" cx="422.9" cy="527.8" r="3.8"/>
											<circle fill="#FFFFFF" cx="422.9" cy="538" r="3.2"/>
											<circle fill="#FFFFFF" cx="422.9" cy="547.8" r="2.3"/>
											<circle fill="#FFFFFF" cx="422.9" cy="557.5" r="1.5"/>
											<circle fill="#FFFFFF" cx="422.9" cy="565.4" r="0.9"/>
											<circle fill="#FFFFFF" cx="422.9" cy="572.2" r="0.4"/>
										</g>
										<g>
											<circle fill="#FFFFFF" cx="433.1" cy="516.7" r="4.5"/>
											<circle fill="#FFFFFF" cx="433.1" cy="527.8" r="3.8"/>
											<circle fill="#FFFFFF" cx="433.1" cy="538" r="3.2"/>
											<circle fill="#FFFFFF" cx="433.1" cy="547.8" r="2.3"/>
											<circle fill="#FFFFFF" cx="433.1" cy="557.5" r="1.5"/>
											<circle fill="#FFFFFF" cx="433.1" cy="565.4" r="0.9"/>
											<circle fill="#FFFFFF" cx="433.1" cy="572.2" r="0.4"/>
										</g>
										<g>
											<circle fill="#FFFFFF" cx="259.3" cy="516.7" r="4.5"/>
											<circle fill="#FFFFFF" cx="259.3" cy="527.8" r="3.8"/>
											<circle fill="#FFFFFF" cx="259.3" cy="538" r="3.2"/>
											<circle fill="#FFFFFF" cx="259.3" cy="547.8" r="2.3"/>
											<circle fill="#FFFFFF" cx="259.3" cy="557.5" r="1.5"/>
											<circle fill="#FFFFFF" cx="259.3" cy="565.4" r="0.9"/>
											<circle fill="#FFFFFF" cx="259.3" cy="572.2" r="0.4"/>
										</g>
									</g>
								</g>
								<g>
									<ellipse fill="#032828" cx="346.8" cy="415.7" rx="49.7" ry="44.4"/>
									<path fill="#032828" d="M396.5,414.6l0.4,106.6l-4.2,8.5l-9.4,28.9c0,0-19.3-8.3-19.5-33.8c0-20,25.9-110,25.9-110
										L396.5,414.6z"/>
									<path fill="#032828" d="M297.1,417.1l-0.4,139.7l5.3-10.4l7.2,27.4c0,0,13.6-5.1,19.5-33.8c5.3-25.9-23.8-110-23.8-110
										L297.1,417.1z"/>
									<path fill="#032828" d="M394.6,438c0,7,2.3,12.9-4.7,12.9h-86c-7,0-2.8-5.7-2.8-12.9c0,0-16.1-62.6,52.7-62.6h1.7
										C404,375.5,394.6,438,394.6,438z"/>
									<path fill="#D5BAB4" d="M385.9,423.7l-0.4-16.8c0-7-0.8-12.9-7.7-12.9H316c-7,0-7.7,5.7-7.7,12.9l-0.4,16.8l-0.6,35.3
										c0.9,16.8,20,35,32.7,40.6c2.3,0.9,11.9,0.9,14.4,0c13.2-5.7,31.4-23.8,32.3-40.6L385.9,423.7z"/>
									<polygon fill="#032828" points="361.1,403.8 302.7,450.9 305.6,390.8 317.1,381.4 380,387.6 389.7,396.1 									"/>
									<polygon fill="#032828" points="367.7,409.5 391.6,436.2 395.5,415.2 383.1,391.2 367,398.7 									"/>
									<path fill="#FFFFFF" d="M328.8,469.2c0,9.3,7.9,16.6,18,16.6c7.6,0,18-7.6,18-16.6H328.8z"/>
									<polygon fill="#032828" points="369.3,410.6 314.6,446.4 344.5,415.7 360.2,395.5 369.1,400.4 									"/>
								</g>
								<path fill="#A79896" d="M330.7,502.3v11c0,0,4.5,12.3,15.9,12.3s15.3-12.3,15.3-12.3v-11H330.7z"/>
							</g>
							<g>
								<path fill="#D5BAB4" d="M428,524.2c0,2.1-1.7,3.6-3.6,3.6h-24.8c-2.1,0-3.6-1.7-3.6-3.6v-12.1c0-2.1,1.7-3.6,3.6-3.6h24.8
									c2.1,0,3.6,1.7,3.6,3.6V524.2z"/>
								<path fill="#D5BAB4" d="M403.7,550.7c0,1.9-1.7,3.4-4,3.4l0,0c-2.1,0-4-1.5-4-3.4v-24.9c0-1.9,1.7-3.4,4-3.4l0,0
									c2.1,0,4,1.5,4,3.4V550.7z"/>
								<path fill="#D5BAB4" d="M391.4,536.3c-0.9,1.7-3.2,2.3-5.1,1.3l0,0c-2.1-0.9-2.8-3.2-2.1-4.9l11.1-22.3
									c0.9-1.7,3.2-2.3,5.1-1.3l0,0c2.1,0.9,2.8,3.2,2.1,4.9L391.4,536.3z"/>
								<path fill="#D5BAB4" d="M411.8,557.9c0,1.9-1.7,3.4-4,3.4l0,0c-2.1,0-4-1.5-4-3.4v-30c0-1.9,1.7-3.4,4-3.4l0,0
									c2.1,0,4,1.5,4,3.4V557.9z"/>
								<path fill="#D5BAB4" d="M419.9,554.8c0,1.9-1.7,3.4-4,3.4l0,0c-2.1,0-4-1.5-4-3.4v-34.2c0-1.9,1.7-3.4,4-3.4l0,0
									c2.1,0,4,1.5,4,3.4V554.8z"/>
								<path fill="#D5BAB4" d="M428,546.7c0,1.9-1.7,3.4-4,3.4l0,0c-2.1,0-4-1.5-4-3.4v-21c0-1.9,1.7-3.4,4-3.4l0,0
									c2.1,0,4,1.5,4,3.4V546.7z"/>
							</g>
						</g>
						<g>
							<rect x="205.2" y="384.9" fill="#032828" width="27.4" height="1.3"/>
							<rect x="245.1" y="384.9" fill="#032828" width="27.4" height="1.3"/>
							<rect x="320.9" y="444.9" fill="#032828" width="21.4" height="5.7"/>
							<rect x="351.9" y="444.9" fill="#032828" width="21.4" height="5.7"/>
						</g>
					</g>
				</g>
			</g>
		</g>
	</g>
</g>
</svg>
